<svg width="300" height="300" viewBox="0 0 300 300" fill="none" xmlns="http://www.w3.org/2000/svg">
<rect width="300" height="300" rx="24" fill="#DAFF56"/>
<rect x="130" y="220.633" width="40" height="53" rx="7" fill="black"/>
<path d="M102.909 94.29C106.775 94.2901 109.909 97.4241 109.909 101.29V169.039H190.091V101.29C190.091 97.4241 193.225 94.2902 197.091 94.29H224C227.866 94.29 231 97.424 231 101.29V266.319C231 270.185 227.866 273.319 224 273.319H197.091C193.225 273.319 190.091 270.185 190.091 266.319V198.57H109.909V266.319C109.909 270.185 106.775 273.319 102.909 273.319H76C72.134 273.319 69 270.185 69 266.319V101.29C69 97.424 72.134 94.29 76 94.29H102.909Z" fill="black"/>
<path d="M224 26C227.866 26 231 29.134 231 33V65.1416C231 69.0076 227.866 72.1416 224 72.1416H170.455V139.892C170.455 143.757 167.321 146.891 163.455 146.892H136.546C132.68 146.892 129.546 143.757 129.546 139.892V72.1416H76C72.134 72.1416 69 69.0076 69 65.1416V33C69 29.134 72.134 26 76 26H224Z" fill="black"/>
</svg>
