<svg width="12" height="16" viewBox="0 0 12 16" fill="none" xmlns="http://www.w3.org/2000/svg">
<rect x="4.41797" y="12.597" width="2.98507" height="3.40298" rx="1.49253" fill="white"/>
<path d="M10.3281 4.41792C10.8928 4.41792 11.3842 4.73172 11.6377 5.19429H11.8213V14.1494H11.7764C11.8047 14.2642 11.8213 14.3842 11.8213 14.5078C11.8211 15.3319 11.1523 16 10.3281 16C9.50402 15.9998 8.83611 15.3319 8.83594 14.5078C8.83594 14.3842 8.85254 14.2642 8.88086 14.1494H8.83594V11.164H2.98535V13.7314H2.76562C2.90389 13.9577 2.98535 14.2231 2.98535 14.5078C2.98518 15.3319 2.31639 16 1.49219 16C0.668146 15.9998 0.000167522 15.3318 0 14.5078C0 14.2233 0.0806049 13.9577 0.21875 13.7314H0V5.19429H0.182617C0.436069 4.73169 0.927531 4.41805 1.49219 4.41792C2.05687 4.41792 2.54821 4.73176 2.80176 5.19429H2.98535V9.25386H8.83594V5.19429H9.01855C9.27204 4.73168 9.76344 4.418 10.3281 4.41792Z" fill="white"/>
<path d="M10.5078 0.011734C11.2473 0.100423 11.8211 0.728838 11.8213 1.4922C11.8213 2.2557 11.2474 2.88393 10.5078 2.97267V2.98537H7.40332V5.67189H7.24902C7.34644 5.87016 7.40329 6.09232 7.40332 6.32814C7.40332 7.15244 6.73446 7.8213 5.91016 7.8213C5.08598 7.82115 4.41797 7.15235 4.41797 6.32814C4.418 6.09241 4.47394 5.8701 4.57129 5.67189H4.41797V2.98537H1.6123V2.97853C1.57275 2.98168 1.53255 2.98537 1.49219 2.98537C0.668043 2.98518 0 2.31639 0 1.4922C0.000187485 0.668174 0.668159 0.000202744 1.49219 1.52588e-05C1.53253 1.52588e-05 1.57277 0.00273284 1.6123 0.00587463V1.52588e-05H10.5078V0.011734Z" fill="white"/>
</svg>
